  <svg
    width="24"
    height="24"
    viewBox="0 0 24 24"
    fill="none"
    xmlns="http://www.w3.org/2000/svg"
  >
    <mask
      id="path-1-outside-1_3257_10909"
      maskUnits="userSpaceOnUse"
      x="1"
      y="0.999329"
      width="22"
      height="22"
      fill="black"
    >
      <rect fill="white" x="1" y="0.999329" width="22" height="22" />
      <path
        fill-rule="evenodd"
        clip-rule="evenodd"
        d="M17.2106 22H20.5417C21.3458 22 22 21.3458 22 20.5416V9.08329C22 8.87746 21.8983 8.68496 21.73 8.56829L12.355 2.10995C12.1417 1.96245 11.8592 1.96245 11.6458 2.10995L2.27083 8.56829C2.10167 8.68496 2 8.87746 2 9.08329V20.5416C2 21.3458 2.65417 22 3.45833 22H6.78947L6.79168 22H17.2083L17.2106 22ZM17.8333 20.75H20.5417C20.6567 20.75 20.75 20.6566 20.75 20.5416V9.41162L12 3.38412L3.25 9.41162V20.5416C3.25 20.6566 3.34333 20.75 3.45833 20.75H6.16668V18.0416V14.7083V11.7916C6.16668 11.4466 6.44668 11.1666 6.79168 11.1666H17.2083C17.5533 11.1666 17.8333 11.4466 17.8333 11.7916V14.7083V18.0416V20.75ZM16.5833 17.4166V15.3333H7.41668V17.4166H16.5833ZM7.41668 18.6666H16.5833V20.75H7.41668V18.6666ZM7.41668 14.0833H16.5833V12.4166H7.41668V14.0833Z"
      />
    </mask>
    <path
      fill-rule="evenodd"
      clip-rule="evenodd"
      d="M17.2106 22H20.5417C21.3458 22 22 21.3458 22 20.5416V9.08329C22 8.87746 21.8983 8.68496 21.73 8.56829L12.355 2.10995C12.1417 1.96245 11.8592 1.96245 11.6458 2.10995L2.27083 8.56829C2.10167 8.68496 2 8.87746 2 9.08329V20.5416C2 21.3458 2.65417 22 3.45833 22H6.78947L6.79168 22H17.2083L17.2106 22ZM17.8333 20.75H20.5417C20.6567 20.75 20.75 20.6566 20.75 20.5416V9.41162L12 3.38412L3.25 9.41162V20.5416C3.25 20.6566 3.34333 20.75 3.45833 20.75H6.16668V18.0416V14.7083V11.7916C6.16668 11.4466 6.44668 11.1666 6.79168 11.1666H17.2083C17.5533 11.1666 17.8333 11.4466 17.8333 11.7916V14.7083V18.0416V20.75ZM16.5833 17.4166V15.3333H7.41668V17.4166H16.5833ZM7.41668 18.6666H16.5833V20.75H7.41668V18.6666ZM7.41668 14.0833H16.5833V12.4166H7.41668V14.0833Z"
      fill="#C6D1CE"
    />
    <path
      d="M17.2106 22V21.8L17.2102 21.8L17.2106 22ZM21.73 8.56829L21.8439 8.40391L21.8435 8.40359L21.73 8.56829ZM12.355 2.10995L12.2413 2.27446L12.2415 2.27466L12.355 2.10995ZM11.6458 2.10995L11.7593 2.27466L11.7596 2.27446L11.6458 2.10995ZM2.27083 8.56829L2.15737 8.40359L2.15729 8.40365L2.27083 8.56829ZM6.78947 22L6.78982 21.8H6.78947V22ZM6.79168 22L6.79133 22.2H6.79168V22ZM17.2083 22V22.2L17.2087 22.2L17.2083 22ZM17.8333 20.75H17.6333V20.95H17.8333V20.75ZM20.75 9.41162H20.95V9.30653L20.8635 9.24692L20.75 9.41162ZM12 3.38412L12.1135 3.21942L12 3.14126L11.8865 3.21942L12 3.38412ZM3.25 9.41162L3.13654 9.24692L3.05 9.30653V9.41162H3.25ZM6.16668 20.75V20.95H6.36667V20.75H6.16668ZM16.5833 17.4166V17.6166H16.7833V17.4166H16.5833ZM16.5833 15.3333H16.7833V15.1333H16.5833V15.3333ZM7.41668 15.3333V15.1333H7.21668V15.3333H7.41668ZM7.41668 17.4166H7.21668V17.6166H7.41668V17.4166ZM16.5833 18.6666H16.7833V18.4666H16.5833V18.6666ZM7.41668 18.6666V18.4666H7.21668V18.6666H7.41668ZM16.5833 20.75V20.95H16.7833V20.75H16.5833ZM7.41668 20.75H7.21668V20.95H7.41668V20.75ZM16.5833 14.0833V14.2833H16.7833V14.0833H16.5833ZM7.41668 14.0833H7.21668V14.2833H7.41668V14.0833ZM16.5833 12.4166H16.7833V12.2166H16.5833V12.4166ZM7.41668 12.4166V12.2166H7.21668V12.4166H7.41668ZM20.5417 21.8H17.2106V22.2H20.5417V21.8ZM21.8 20.5416C21.8 21.2353 21.2354 21.8 20.5417 21.8V22.2C21.4563 22.2 22.2 21.4563 22.2 20.5416H21.8ZM21.8 9.08329V20.5416H22.2V9.08329H21.8ZM21.6161 8.73267C21.7308 8.8122 21.8 8.94345 21.8 9.08329H22.2C22.2 8.81146 22.0658 8.55771 21.8439 8.40391L21.6161 8.73267ZM12.2415 2.27466L21.6165 8.73299L21.8435 8.40359L12.4685 1.94525L12.2415 2.27466ZM11.7596 2.27446C11.9045 2.17428 12.0964 2.17428 12.2413 2.27446L12.4687 1.94545C12.187 1.75062 11.8139 1.75062 11.5321 1.94545L11.7596 2.27446ZM2.38429 8.73299L11.7593 2.27466L11.5324 1.94525L2.15737 8.40359L2.38429 8.73299ZM2.2 9.08329C2.2 8.94354 2.26907 8.81246 2.38438 8.73293L2.15729 8.40365C1.93426 8.55746 1.8 8.81137 1.8 9.08329H2.2ZM2.2 20.5416V9.08329H1.8V20.5416H2.2ZM3.45833 21.8C2.76462 21.8 2.2 21.2353 2.2 20.5416H1.8C1.8 21.4563 2.54371 22.2 3.45833 22.2V21.8ZM6.78947 21.8H3.45833V22.2H6.78947V21.8ZM6.79202 21.8L6.78982 21.8L6.78912 22.2L6.79133 22.2L6.79202 21.8ZM17.2083 21.8H6.79168V22.2H17.2083V21.8ZM17.2102 21.8L17.208 21.8L17.2087 22.2L17.2109 22.2L17.2102 21.8ZM20.5417 20.55H17.8333V20.95H20.5417V20.55ZM20.55 20.5416C20.55 20.5462 20.5462 20.55 20.5417 20.55V20.95C20.7671 20.95 20.95 20.7671 20.95 20.5416H20.55ZM20.55 9.41162V20.5416H20.95V9.41162H20.55ZM11.8865 3.54882L20.6365 9.57633L20.8635 9.24692L12.1135 3.21942L11.8865 3.54882ZM3.36346 9.57633L12.1135 3.54882L11.8865 3.21942L3.13654 9.24692L3.36346 9.57633ZM3.45 20.5416V9.41162H3.05V20.5416H3.45ZM3.45833 20.55C3.45379 20.55 3.45 20.5462 3.45 20.5416H3.05C3.05 20.7671 3.23288 20.95 3.45833 20.95V20.55ZM6.16668 20.55H3.45833V20.95H6.16668V20.55ZM5.96668 18.0416V20.75H6.36667V18.0416H5.96668ZM5.96668 14.7083V18.0416H6.36667V14.7083H5.96668ZM5.96668 11.7916V14.7083H6.36667V11.7916H5.96668ZM6.79168 10.9666C6.33622 10.9666 5.96668 11.3362 5.96668 11.7916H6.36667C6.36667 11.5571 6.55713 11.3666 6.79168 11.3666V10.9666ZM17.2083 10.9666H6.79168V11.3666H17.2083V10.9666ZM18.0333 11.7916C18.0333 11.3362 17.6638 10.9666 17.2083 10.9666V11.3666C17.4429 11.3666 17.6333 11.5571 17.6333 11.7916H18.0333ZM18.0333 14.7083V11.7916H17.6333V14.7083H18.0333ZM18.0333 18.0416V14.7083H17.6333V18.0416H18.0333ZM18.0333 20.75V18.0416H17.6333V20.75H18.0333ZM16.7833 17.4166V15.3333H16.3833V17.4166H16.7833ZM16.5833 15.1333H7.41668V15.5333H16.5833V15.1333ZM7.21668 15.3333V17.4166H7.61668V15.3333H7.21668ZM7.41668 17.6166H16.5833V17.2166H7.41668V17.6166ZM16.5833 18.4666H7.41668V18.8666H16.5833V18.4666ZM16.7833 20.75V18.6666H16.3833V20.75H16.7833ZM7.41668 20.95H16.5833V20.55H7.41668V20.95ZM7.21668 18.6666V20.75H7.61668V18.6666H7.21668ZM16.5833 13.8833H7.41668V14.2833H16.5833V13.8833ZM16.3833 12.4166V14.0833H16.7833V12.4166H16.3833ZM7.41668 12.6166H16.5833V12.2166H7.41668V12.6166ZM7.61668 14.0833V12.4166H7.21668V14.0833H7.61668Z"
      fill="#C6D1CE"
      mask="url(#path-1-outside-1_3257_10909)"
    />
  </svg>