 <svg
    width="22"
    height="22"
    viewBox="0 0 22 22"
    fill="none"
    xmlns="http://www.w3.org/2000/svg"
  >
    <path
      d="M2.36897 11.5879L2.48641 11.4704V20.2188C2.48641 20.6779 2.85868 21.05 3.31766 21.05H18.6823C19.1413 21.05 19.5136 20.6779 19.5136 20.2188V11.4705L19.6309 11.5879L19.6309 11.5879C19.9556 11.9124 20.4819 11.9124 20.8065 11.5879C21.1312 11.2632 21.1312 10.7368 20.8065 10.4123L20.8033 10.4091L20.8 10.4058L20.7965 10.4023L20.7928 10.3986L20.7889 10.3947L20.7849 10.3907L20.7806 10.3864L20.7763 10.3821L20.7717 10.3775L20.767 10.3728L20.7621 10.3679L20.757 10.3628L20.7517 10.3575L20.7463 10.3521L20.7407 10.3465L20.735 10.3408L20.7291 10.3349L20.723 10.3288L20.7167 10.3225L20.7103 10.3161L20.7038 10.3096L20.697 10.3028L20.6901 10.2959L20.683 10.2888L20.6758 10.2816L20.6684 10.2742L20.6609 10.2667L20.6532 10.259L20.6453 10.2511L20.6373 10.2431L20.6291 10.2349L20.6208 10.2266L20.6123 10.2181L20.6036 10.2094L20.5948 10.2006L20.5859 10.1917L20.5768 10.1826L20.5675 10.1733L20.5581 10.1639L20.5485 10.1543L20.5388 10.1446L20.5289 10.1347L20.5189 10.1247L20.5088 10.1146L20.4985 10.1043L20.488 10.0938L20.4774 10.0832L20.4667 10.0725L20.4558 10.0616L20.4448 10.0506L20.4336 10.0394L20.4223 10.0281L20.4108 10.0166L20.3992 10.005L20.3875 9.99326L20.3756 9.98138L20.3636 9.96936L20.3514 9.9572L20.3391 9.94491L20.3267 9.93248L20.3141 9.91991L20.3014 9.9072L20.2886 9.89437L20.2756 9.88139L20.2625 9.86829L20.2492 9.85505L20.2359 9.84168L20.2224 9.82818L20.2087 9.81455L20.195 9.80079L20.1811 9.7869L20.1671 9.77288L20.1529 9.75874L20.1387 9.74446L20.1243 9.73006L20.1097 9.71554L20.0951 9.70089L20.0803 9.68612L20.0654 9.67122L20.0504 9.6562L20.0353 9.64106L20.02 9.6258L20.0046 9.61041L19.9891 9.59491L19.9735 9.57929L19.9577 9.56355L19.9419 9.54769L19.9259 9.53171L19.9098 9.51562L19.8936 9.49941L19.8773 9.48309L19.8608 9.46665L19.8443 9.4501L19.8276 9.43343L19.8109 9.41666L19.794 9.39977L19.777 9.38277L19.7599 9.36566L19.7426 9.34845L19.7253 9.33112L19.7079 9.31369L19.6903 9.29614L19.6727 9.2785L19.6549 9.26074L19.6371 9.24288L19.6191 9.22492L19.601 9.20685L19.5829 9.18868L19.5646 9.17041L19.5462 9.15203L19.5278 9.13356L19.5092 9.11498L19.4905 9.09631L19.4717 9.07753L19.4529 9.05866L19.4339 9.03969L19.4148 9.02063L19.3957 9.00146L19.3764 8.98221L19.357 8.96285L19.3376 8.94341L19.3181 8.92387L19.2984 8.90424L19.2787 8.88451L19.2589 8.8647L19.239 8.84479L19.219 8.8248L19.1989 8.80471L19.1787 8.78454L19.1585 8.76428L19.1381 8.74393L19.1177 8.7235L19.0972 8.70298L19.0766 8.68238L19.0559 8.66169L19.0351 8.64092L19.0143 8.62007L18.9933 8.59913L18.9723 8.57812L18.9512 8.55702L18.93 8.53584L18.9088 8.51459L18.8874 8.49325L18.866 8.47184L18.8445 8.45035L18.823 8.42878L18.8013 8.40714L18.7796 8.38542L18.7578 8.36363L18.736 8.34177L18.714 8.31983L18.692 8.29782L18.6699 8.27574L18.6478 8.25359L18.6256 8.23137L18.6033 8.20908L18.5809 8.18672L18.5585 8.16429L18.536 8.1418L18.5134 8.11924L18.4908 8.09661L18.4681 8.07392L18.4454 8.05116L18.4225 8.02834L18.3997 8.00546L18.3767 7.98251L18.3537 7.9595L18.3306 7.93643L18.3075 7.91331L18.2843 7.89012L18.2611 7.86687L18.2378 7.84357L18.2144 7.8202L18.191 7.79679L18.1675 7.77331L18.144 7.74978L18.1204 7.7262L18.0968 7.70256L18.0731 7.67887L18.0493 7.65512L18.0255 7.63133L18.0017 7.60748L17.9778 7.58358L17.9538 7.55963L17.9298 7.53564L17.9058 7.51159L17.8817 7.4875L17.8576 7.46336L17.8334 7.43918L17.8091 7.41495L17.7849 7.39067L17.7605 7.36635L17.7362 7.34199L17.7118 7.31758L17.6873 7.29314L17.6628 7.26865L17.6383 7.24412L17.6137 7.21955L17.5891 7.19494L17.5645 7.1703L17.5398 7.14561L17.5151 7.12089L17.4903 7.09613L17.4655 7.07134L17.4407 7.04651L17.4158 7.02165L17.391 6.99675L17.366 6.97183L17.3411 6.94687L17.3161 6.92187L17.291 6.89685L17.266 6.8718L17.2409 6.84671L17.2158 6.8216L17.1907 6.79647L17.1655 6.7713L17.1403 6.74611L17.1151 6.72089L17.0898 6.69565L17.0646 6.67038L17.0393 6.64509L17.014 6.61977L16.9886 6.59444L16.9633 6.56908L16.9379 6.5437L16.9125 6.5183L16.8871 6.49288L16.8616 6.46744L16.8362 6.44199L16.8107 6.41652L16.7852 6.39103L16.7597 6.36552L16.7342 6.34L16.7087 6.31447L16.6831 6.28892L16.6576 6.26335L16.632 6.23778L16.6064 6.21219L16.5808 6.1866L16.5552 6.16099L16.5296 6.13537L16.5039 6.10974L16.4783 6.08411L16.4527 6.05847L16.427 6.03282L16.4014 6.00716L16.3757 5.9815L16.35 5.95584L16.3244 5.93017L16.2987 5.9045L16.273 5.87882L16.2473 5.85314L16.2217 5.82747L16.196 5.80179L16.1703 5.77611L16.1446 5.75043L16.119 5.72475L16.0933 5.69908L16.0676 5.67341L16.0419 5.64774L16.0163 5.62208L15.9906 5.59642L15.965 5.57077L15.9393 5.54513L15.9137 5.51949L15.8881 5.49386L15.8624 5.46824L15.8368 5.44262L15.8112 5.41702L15.7856 5.39143L15.76 5.36585L15.7345 5.34028L15.7089 5.31473L15.6834 5.28919L15.6579 5.26366L15.6323 5.23815L15.6068 5.21265L15.5814 5.18717L15.5559 5.16171L15.5305 5.13626L15.505 5.11083L15.4796 5.08543L15.4542 5.06004L15.4289 5.03467L15.4035 5.00933L15.3782 4.984L15.3529 4.9587L15.3276 4.93342L15.3024 4.90817L15.2771 4.88294L15.2519 4.85773L15.2268 4.83256L15.2016 4.80741L15.1765 4.78228L15.1514 4.75719L15.1263 4.73212L15.1013 4.70709L15.0763 4.68208L15.0513 4.65711L15.0264 4.63216L15.0015 4.60725L14.9766 4.58238L14.9517 4.55753L14.9269 4.53272L14.9021 4.50795L14.8774 4.48321L14.8527 4.45851L14.828 4.43385L14.8034 4.40923L14.7788 4.38464L14.7543 4.36009L14.7298 4.33559L14.7053 4.31112L14.6809 4.2867L14.6565 4.26232L14.6322 4.23798L14.6079 4.21368L14.5836 4.18943L14.5594 4.16523L14.5353 4.14107L14.5112 4.11696L14.4871 4.09289L14.4631 4.06887L14.4391 4.0449L14.4152 4.02098L14.3913 3.99711L14.3675 3.9733L14.3437 3.94953L14.32 3.92581L14.2963 3.90215L14.2727 3.87854L14.2492 3.85499L14.2257 3.83149L14.2022 3.80805L14.1789 3.78466L14.1555 3.76133L14.1323 3.73806L14.109 3.71484L14.0859 3.69169L14.0628 3.66859L14.0398 3.64556L14.0168 3.62259L13.9939 3.59967L13.971 3.57683L13.9482 3.55404L13.9255 3.53132L13.9029 3.50867L13.8803 3.48608L13.8577 3.46355L13.8353 3.44109L13.8129 3.4187L13.7906 3.39638L13.7683 3.37413L13.7461 3.35195L13.724 3.32984L13.702 3.3078L13.68 3.28583L13.6581 3.26393L13.6363 3.24211L13.6146 3.22036L13.5929 3.19868L13.5713 3.17708L13.5498 3.15556L13.5283 3.13411L13.5069 3.11274L13.4857 3.09145L13.4644 3.07024L13.4433 3.04911L13.4223 3.02806L13.4013 3.00709L13.3804 2.9862L13.3596 2.96539L13.3389 2.94466L13.3182 2.92402L13.2977 2.90347L13.2772 2.883L13.2568 2.86261L13.2365 2.84231L13.2163 2.8221L13.1962 2.80198L13.1761 2.78195L13.1562 2.762L13.1363 2.74215L13.1166 2.72238L13.0969 2.70271L13.0773 2.68313L13.0578 2.66364L13.0384 2.64425L13.0191 2.62495L12.9999 2.60575L12.9808 2.58664L12.9618 2.56762L12.9429 2.54871L12.9241 2.52989L12.9054 2.51117L12.8868 2.49255L12.8682 2.47403L12.8498 2.45562L12.8315 2.4373L12.8133 2.41908L12.7952 2.40097L12.7772 2.38296L12.7593 2.36505L12.7415 2.34725L12.7238 2.32956L12.7062 2.31197L12.6887 2.29449L12.6713 2.27711L12.654 2.25985L12.6369 2.24269L12.6198 2.22565L12.6029 2.20871L12.5861 2.19188L12.5694 2.17517L12.5528 2.15857L12.5363 2.14208L12.5199 2.12571L12.5036 2.10945L12.4875 2.09331L12.4715 2.07728L12.4556 2.06137L12.4398 2.04558L12.4241 2.0299L12.4085 2.01435L12.3931 1.99891L12.3778 1.98359L12.3626 1.9684L12.3475 1.95332L12.3326 1.93837L12.3177 1.92355L12.303 1.90884L12.2885 1.89426L12.274 1.87981L12.2597 1.86548L12.2455 1.85128L12.2314 1.8372L12.2175 1.82326L12.2036 1.80944L12.1899 1.79575L12.1764 1.78219L12.163 1.76877L12.1497 1.75547L12.1365 1.74231L12.1235 1.72928L12.1106 1.71638L12.0978 1.70362L12.0852 1.69099L12.0727 1.6785L12.0603 1.66614L12.0481 1.65392L12.036 1.64184L12.0241 1.6299L12.0123 1.6181L12.0006 1.60644L11.9891 1.59491L11.9777 1.58353L11.9665 1.5723L11.9554 1.5612L11.9444 1.55025L11.9336 1.53944L11.923 1.52878L11.9125 1.51826L11.9021 1.50789L11.8919 1.49766L11.8818 1.48759L11.8719 1.47766L11.8621 1.46788L11.8524 1.45825L11.843 1.44877L11.8336 1.43944L11.8245 1.43027L11.8154 1.42125L11.8066 1.41238L11.7979 1.40366L11.7893 1.3951L11.7809 1.38669L11.7726 1.37844L11.7645 1.37035L11.7566 1.36242L11.7488 1.35464L11.7412 1.34702L11.7338 1.33956L11.7265 1.33227L11.7193 1.32513L11.7123 1.31815L11.7055 1.31134L11.6989 1.30469L11.6924 1.2982L11.6861 1.29188L11.6799 1.28573L11.6739 1.27974L11.6681 1.27391L11.6625 1.26826L11.657 1.26277L11.6516 1.25745L11.6465 1.2523L11.6415 1.24732L11.6367 1.24251L11.6321 1.23788L11.6276 1.23341L11.6233 1.22912L11.6192 1.225L11.6153 1.22106L11.6115 1.21729L11.6079 1.2137L11.6045 1.21028L11.6012 1.20704L11.5982 1.20398L11.5953 1.2011L11.5926 1.19839L11.5901 1.19587L11.5877 1.19354C11.5877 1.19353 11.5877 1.19353 11.5877 1.19353C11.2632 0.868824 10.7368 0.868824 10.4123 1.19353C10.4123 1.19353 10.4123 1.19353 10.4123 1.19354L9.65115 1.95464C7.50437 4.10139 1.62544 9.98024 1.19354 10.4123C0.868817 10.7368 0.868829 11.2632 1.19353 11.5879C1.51808 11.9124 2.04442 11.9124 2.36897 11.5879ZM13.2417 19.3875H8.75844V14.9042H13.2417V19.3875ZM17.8511 19.3875H14.9042V14.073C14.9042 13.6138 14.5321 13.2417 14.073 13.2417H7.92719C7.46805 13.2417 7.09593 13.6138 7.09593 14.073V19.3875H4.14906V9.80794L11 2.95685L17.8511 9.80794V19.3875Z"
      fill="#C6D1CE"
      stroke="#C6D1CE"
      stroke-width="0.1"
    />
  </svg>