 <svg
    width="40"
    height="9"
    viewBox="0 0 40 9"
    fill="none"
    xmlns="http://www.w3.org/2000/svg"
  >
    <path
      d="M38.8653 6.64869C38.7155 6.64924 38.5673 6.67933 38.4292 6.73722C38.2911 6.79511 38.1658 6.87966 38.0604 6.98605C37.955 7.09243 37.8716 7.21856 37.815 7.35721C37.7584 7.49586 37.7297 7.64431 37.7305 7.79406C37.7297 7.94381 37.7584 8.09226 37.815 8.23091C37.8716 8.36956 37.955 8.49568 38.0604 8.60207C38.1658 8.70845 38.2911 8.79301 38.4292 8.8509C38.5673 8.90879 38.7155 8.93887 38.8653 8.93943C39.4912 8.93943 40 8.42635 40 7.79406C40.0008 7.64431 39.9721 7.49586 39.9155 7.35721C39.8589 7.21856 39.7756 7.09243 39.6702 6.98605C39.5648 6.87966 39.4394 6.79511 39.3013 6.73722C39.1632 6.67933 39.015 6.64924 38.8653 6.64869ZM35.1311 5.76411C35.1311 4.89763 34.3977 4.19615 33.4929 4.19615C32.5881 4.19615 31.8547 4.8987 31.8547 5.76411C31.8547 6.62953 32.5891 7.33101 33.4939 7.33101C34.3987 7.33101 35.1311 6.62953 35.1311 5.76411ZM35.1375 2.71653H36.945V8.81063H35.1375V8.42103C34.6105 8.78479 33.9852 8.97935 33.3449 8.97881C31.5853 8.97881 30.1589 7.53965 30.1589 5.76411C30.1589 3.98857 31.5853 2.54941 33.3449 2.54941C34.0102 2.54941 34.6265 2.75485 35.1375 3.10719V2.71653ZM20.6692 3.51063V2.7176H18.8181V8.81063H20.6734V5.9653C20.6734 5.00514 21.7039 4.48994 22.4192 4.48994H22.4405V2.7176C21.706 2.7176 21.0322 3.03481 20.6692 3.51063ZM16.0579 5.76411C16.0579 4.89763 15.3245 4.19615 14.4197 4.19615C13.5149 4.19615 12.7815 4.8987 12.7815 5.76411C12.7815 6.62953 13.5159 7.33101 14.4207 7.33101C15.3255 7.33101 16.0579 6.62953 16.0579 5.76411ZM16.0643 2.71653H17.8728V8.81063H16.0643V8.42103C15.5533 8.77231 14.937 8.97881 14.2717 8.97881C12.5121 8.97881 11.0858 7.53965 11.0858 5.76411C11.0858 3.98857 12.5121 2.54941 14.2717 2.54941C14.937 2.54941 15.5533 2.75485 16.0643 3.10719V2.71653ZM26.9464 2.55367C26.2247 2.55367 25.5413 2.77933 25.0835 3.40311V2.7176H23.2835V8.81063H25.1059V5.6087C25.1059 4.68261 25.7212 4.22808 26.4631 4.22808C27.2572 4.22808 27.7149 4.70709 27.7149 5.59592V8.81063H29.5203V4.93595C29.5203 3.51808 28.4026 2.55367 26.9464 2.55367ZM8.45225 8.81063H10.3449V0.0021298H8.45225V8.81063ZM0.138733 8.81276H2.14313V0H0.139797L0.138733 8.81276ZM7.14934 0C7.14934 1.90753 6.41273 3.68307 5.09917 5.00195L7.86892 8.81276H5.39403L2.38477 4.67196L3.16183 4.08438C3.79442 3.6086 4.30696 2.99147 4.6585 2.28229C5.01005 1.5731 5.19085 0.791522 5.18645 0H7.14721H7.14934Z"
      fill="#C6D1CE"
    />
  </svg>