<svg
    width="37"
    height="15"
    viewBox="0 0 37 15"
    fill="none"
    xmlns="http://www.w3.org/2000/svg"
  >
    <path
      fill-rule="evenodd"
      clip-rule="evenodd"
      d="M36.0479 7.75038C36.0479 5.187 34.8063 3.16431 32.4331 3.16431C30.05 3.16431 28.608 5.187 28.608 7.73039C28.608 10.7444 30.3103 12.2664 32.7535 12.2664C33.9451 12.2664 34.8463 11.9961 35.5272 11.6155V9.61283C34.8463 9.9533 34.0653 10.1635 33.0739 10.1635C32.1026 10.1635 31.2415 9.82305 31.1314 8.64147H36.0278C36.0279 8.51137 36.0479 7.99067 36.0479 7.75038ZM31.1014 6.79909C31.1014 5.66757 31.7923 5.19699 32.4231 5.19699C33.0339 5.19699 33.6848 5.66764 33.6848 6.79909H31.1014Z"
      fill="#C6D1CE"
    />
    <path
      fill-rule="evenodd"
      clip-rule="evenodd"
      d="M24.7429 3.16425C23.7617 3.16425 23.1308 3.62489 22.7803 3.9453L22.6501 3.32448H20.4472V15L22.9505 14.4693L22.9605 11.6355C23.321 11.8959 23.8517 12.2663 24.7329 12.2663C26.5253 12.2663 28.1574 10.8244 28.1574 7.6502C28.1475 4.74635 26.4953 3.16425 24.7429 3.16425ZM24.1421 10.0634C23.5513 10.0634 23.2009 9.85312 22.9605 9.59277L22.9505 5.87787C23.2109 5.58746 23.5714 5.38723 24.1421 5.38723C25.0533 5.38723 25.6842 6.40857 25.6842 7.72033C25.6842 9.06214 25.0633 10.0634 24.1421 10.0634Z"
      fill="#C6D1CE"
    />
    <path
      fill-rule="evenodd"
      clip-rule="evenodd"
      d="M17.0026 2.57345L19.516 2.03275V0L17.0026 0.530771V2.57345Z"
      fill="#C6D1CE"
    />
    <path d="M19.516 3.33441H17.0026V12.096H19.516V3.33441Z" fill="#C6D1CE" />
    <path
      fill-rule="evenodd"
      clip-rule="evenodd"
      d="M14.3091 4.07542L14.1488 3.33442H11.986V12.096H14.4893V6.15816C15.08 5.3871 16.0814 5.52735 16.3918 5.63746V3.33442C16.0714 3.21432 14.8998 2.99402 14.3091 4.07542Z"
      fill="#C6D1CE"
    />
    <path
      fill-rule="evenodd"
      clip-rule="evenodd"
      d="M9.3024 1.16162L6.85912 1.68232L6.84912 9.70295C6.84912 11.1849 7.96058 12.2764 9.44257 12.2764C10.2637 12.2764 10.8644 12.1262 11.1949 11.9459V9.91325C10.8745 10.0434 9.2924 10.504 9.2924 9.02208V5.46735H11.1949V3.33455H9.2924L9.3024 1.16162Z"
      fill="#C6D1CE"
    />
    <path
      fill-rule="evenodd"
      clip-rule="evenodd"
      d="M2.53339 5.87787C2.53339 5.48734 2.8538 5.33717 3.3845 5.33717C4.14549 5.33717 5.10678 5.56746 5.86784 5.97805V3.62489C5.03672 3.29449 4.21561 3.16425 3.3845 3.16425C1.35181 3.16425 0 4.22572 0 5.99805C0 8.76173 3.80509 8.32115 3.80509 9.51272C3.80509 9.9733 3.40456 10.1235 2.8438 10.1235C2.01269 10.1235 0.95129 9.78307 0.110181 9.32249V11.7056C1.04141 12.1062 1.9827 12.2764 2.8438 12.2764C4.92654 12.2764 6.35848 11.245 6.35848 9.45267C6.34848 6.4687 2.53339 6.9994 2.53339 5.87787Z"
      fill="#C6D1CE"
    />
  </svg>