  <svg
    width="24"
    height="24"
    viewBox="0 0 24 24"
    fill="none"
    xmlns="http://www.w3.org/2000/svg"
  >
    <g clip-path="url(#clip0_3257_10847)">
      <path
        d="M2.91413 5.75894L2.77328 5.81052C2.62118 5.39516 2.64015 4.94474 2.82657 4.54365C3.013 4.14257 3.34506 3.83779 3.76055 3.6865L2.91413 5.75894ZM2.91413 5.75894L2.77328 5.81052L3.00879 6.45366C1.79014 6.62653 0.85 7.67636 0.85 8.94258V20.6356C0.85 22.0221 1.97726 23.15 3.36328 23.15H19.3477C20.7337 23.15 21.8609 22.0221 21.8609 20.6356V18.0794C22.598 17.9127 23.15 17.2529 23.15 16.4657V13.0265C23.15 12.2393 22.598 11.5795 21.8609 11.4128M2.91413 5.75894L21.8609 11.4128M4.3041 5.18029L4.30408 5.1803L4.3041 5.18029ZM4.3041 5.18029L11.8173 2.44445C11.8173 2.44445 11.8173 2.44445 11.8173 2.44444C11.839 2.43657 11.857 2.44198 11.8671 2.44668L11.9307 2.31083L11.8671 2.44668C11.877 2.45134 11.8927 2.46171 11.9005 2.48342L11.9005 2.48346L12.206 3.33301H12.1289C11.2167 3.33301 10.475 4.07521 10.475 4.98763V6.42823H4.6918L4.26537 5.26371L4.12452 5.31529M4.3041 5.18029L4.12452 5.31529M4.12452 5.31529L4.26537 5.26371C4.25744 5.24206 4.26277 5.22404 4.26742 5.214L4.12452 5.31529ZM21.8609 11.4128V8.94258C21.8609 7.63564 20.8593 6.55924 19.5836 6.43983V4.98759C19.5836 4.07517 18.8419 3.33297 17.9297 3.33297H13.8948L13.3958 1.94535C13.246 1.52868 12.9422 1.19508 12.5413 1.00718L21.8609 11.4128ZM11.2738 0.950633L3.76055 3.6865L11.2738 0.950633ZM21.5609 16.4657C21.5609 16.5014 21.5317 16.5306 21.4961 16.5306H18.0586C17.0753 16.5306 16.275 15.73 16.275 14.7461C16.275 13.7622 17.0753 12.9616 18.0586 12.9616H21.4961C21.5317 12.9616 21.5609 12.9908 21.5609 13.0265V16.4657ZM17.9945 4.98759V6.42818H12.0641V4.98759C12.0641 4.95184 12.0934 4.92264 12.1289 4.92264H17.9297C17.9652 4.92264 17.9945 4.95184 17.9945 4.98759ZM19.3477 21.5603H3.36328C2.85387 21.5603 2.43906 21.1454 2.43906 20.6356V8.94258C2.43906 8.43275 2.85387 8.01785 3.36328 8.01785H19.3477C19.8571 8.01785 20.2719 8.43275 20.2719 8.94258V11.3719H18.0586C16.1987 11.3719 14.6859 12.8855 14.6859 14.7461C14.6859 16.6067 16.1987 18.1203 18.0586 18.1203H20.2719V20.6356C20.2719 21.1454 19.8571 21.5603 19.3477 21.5603Z"
        fill="#C6D1CE"
        stroke="#C6D1CE"
        stroke-width="0.3"
      />
    </g>
    <defs>
      <clipPath id="clip0_3257_10847">
        <rect width="24" height="24" fill="white" />
      </clipPath>
    </defs>
  </svg>